<svg width="166" height="153" viewBox="0 0 166 153" fill="none" xmlns="http://www.w3.org/2000/svg">
<foreignObject x="5.91278e-05" y="-19.3542" width="123.917" height="172.299"><div xmlns="http://www.w3.org/1999/xhtml" style="backdrop-filter:blur(12.1px);clip-path:url(#bgblur_0_68_692_clip_path);height:100%;width:100%"></div></foreignObject><g filter="url(#filter0_dddd_68_692)" data-figma-bg-blur-radius="24.1926">
<mask id="path-1-inside-1_68_692" fill="white">
<path d="M88.298 4.83838C90.0178 4.83838 91.3389 6.34416 91.3389 8.06396C91.3389 12.8214 92.5647 17.173 94.5932 20.5209C96.974 24.4502 99.7236 28.6032 99.7236 33.1975V41.6593C99.7236 48.7853 93.9469 54.562 86.8209 54.562H60.3016C57.4541 54.562 54.8716 52.6672 52.9866 50.5329C51.2797 48.6002 49.998 46.4004 49.998 43.8218V17.7411C49.998 10.6151 55.7748 4.83838 62.9008 4.83838H88.298Z"/>
</mask>
<path d="M88.298 4.83838C90.0178 4.83838 91.3389 6.34416 91.3389 8.06396C91.3389 12.8214 92.5647 17.173 94.5932 20.5209C96.974 24.4502 99.7236 28.6032 99.7236 33.1975V41.6593C99.7236 48.7853 93.9469 54.562 86.8209 54.562H60.3016C57.4541 54.562 54.8716 52.6672 52.9866 50.5329C51.2797 48.6002 49.998 46.4004 49.998 43.8218V17.7411C49.998 10.6151 55.7748 4.83838 62.9008 4.83838H88.298Z" fill="white" fill-opacity="0.1"/>
<g clip-path="url(#paint0_angular_68_692_clip_path)" data-figma-skip-parse="true" mask="url(#path-1-inside-1_68_692)"><g transform="matrix(0.0258573 0.00559391 -0.00488489 0.0225782 76.2283 24.1063)"><foreignObject x="-1611.68" y="-1611.68" width="3223.37" height="3223.37"><div xmlns="http://www.w3.org/1999/xhtml" style="background:conic-gradient(from 90deg,rgba(108, 108, 108, 0.5) 0deg,rgba(64, 64, 64, 0.5) 10.5206deg,rgba(64, 64, 64, 0.35) 32.1212deg,rgba(255, 255, 255, 0.5) 60.2813deg,rgba(255, 255, 255, 0.5) 107.788deg,rgba(64, 64, 64, 0.35) 187.591deg,rgba(249, 249, 249, 1) 207.58deg,rgba(255, 255, 255, 0.5) 287.308deg,rgba(249, 249, 249, 0.5) 327.047deg,rgba(108, 108, 108, 0.5) 360deg);height:100%;width:100%;opacity:0.5"></div></foreignObject></g></g><path d="M91.3389 8.06396H89.726V8.06397L91.3389 8.06396ZM52.9866 50.5329L54.1955 49.4652L52.9866 50.5329ZM91.3389 8.06396L89.726 8.06397C89.7261 13.089 91.0191 17.7346 93.2138 21.3567L94.5932 20.5209L95.9726 19.6851C94.1102 16.6115 92.9517 12.5539 92.9517 8.06396L91.3389 8.06396ZM99.7236 33.1975H98.1108V41.6593H99.7236H101.336V33.1975H99.7236ZM86.8209 54.562V52.9492H60.3016V54.562V56.1749H86.8209V54.562ZM49.998 43.8218H51.6109V17.7411H49.998H48.3852V43.8218H49.998ZM62.9008 4.83838V6.45122H88.298V4.83838V3.22554H62.9008V4.83838ZM49.998 17.7411H51.6109C51.6109 11.5059 56.6655 6.45122 62.9008 6.45122V4.83838V3.22554C54.884 3.22554 48.3852 9.72437 48.3852 17.7411H49.998ZM60.3016 54.562V52.9492C58.1539 52.9492 55.9777 51.4832 54.1955 49.4652L52.9866 50.5329L51.7778 51.6005C53.7655 53.8513 56.7543 56.1749 60.3016 56.1749V54.562ZM99.7236 41.6593H98.1108C98.1108 47.8945 93.0561 52.9492 86.8209 52.9492V54.562V56.1749C94.8376 56.1749 101.336 49.676 101.336 41.6593H99.7236ZM94.5932 20.5209L93.2138 21.3567C94.4313 23.366 95.6522 25.2896 96.5906 27.2937C97.5202 29.2793 98.1108 31.2237 98.1108 33.1975H99.7236H101.336C101.336 30.5771 100.552 28.1478 99.5119 25.9259C98.4802 23.7226 97.1359 21.6051 95.9726 19.6851L94.5932 20.5209ZM52.9866 50.5329L54.1955 49.4652C52.6049 47.6642 51.6109 45.8336 51.6109 43.8218H49.998H48.3852C48.3852 46.9671 49.9546 49.5362 51.7778 51.6005L52.9866 50.5329ZM91.3389 8.06396H92.9517C92.9517 5.57939 91.0295 3.22554 88.298 3.22554V4.83838V6.45122C89.0061 6.45122 89.726 7.10894 89.726 8.06396H91.3389Z" data-figma-gradient-fill="{&#34;type&#34;:&#34;GRADIENT_ANGULAR&#34;,&#34;stops&#34;:[{&#34;color&#34;:{&#34;r&#34;:0.25098040699958801,&#34;g&#34;:0.25098040699958801,&#34;b&#34;:0.25098040699958801,&#34;a&#34;:0.50},&#34;position&#34;:0.029223963618278503},{&#34;color&#34;:{&#34;r&#34;:0.25262922048568726,&#34;g&#34;:0.25262922048568726,&#34;b&#34;:0.25262922048568726,&#34;a&#34;:0.34999999403953552},&#34;position&#34;:0.089225620031356812},{&#34;color&#34;:{&#34;r&#34;:1.0,&#34;g&#34;:1.0,&#34;b&#34;:1.0,&#34;a&#34;:0.50},&#34;position&#34;:0.16744795441627502},{&#34;color&#34;:{&#34;r&#34;:1.0,&#34;g&#34;:1.0,&#34;b&#34;:1.0,&#34;a&#34;:0.50},&#34;position&#34;:0.29941025376319885},{&#34;color&#34;:{&#34;r&#34;:0.25098040699958801,&#34;g&#34;:0.25098040699958801,&#34;b&#34;:0.25098040699958801,&#34;a&#34;:0.34999999403953552},&#34;position&#34;:0.52108556032180786},{&#34;color&#34;:{&#34;r&#34;:0.97664386034011841,&#34;g&#34;:0.97664386034011841,&#34;b&#34;:0.97664386034011841,&#34;a&#34;:1.0},&#34;position&#34;:0.57661086320877075},{&#34;color&#34;:{&#34;r&#34;:1.0,&#34;g&#34;:1.0,&#34;b&#34;:1.0,&#34;a&#34;:0.50},&#34;position&#34;:0.79807692766189575},{&#34;color&#34;:{&#34;r&#34;:0.97647058963775635,&#34;g&#34;:0.97647058963775635,&#34;b&#34;:0.97647058963775635,&#34;a&#34;:0.50},&#34;position&#34;:0.90846514701843262}],&#34;stopsVar&#34;:[{&#34;color&#34;:{&#34;r&#34;:0.25098040699958801,&#34;g&#34;:0.25098040699958801,&#34;b&#34;:0.25098040699958801,&#34;a&#34;:0.50},&#34;position&#34;:0.029223963618278503},{&#34;color&#34;:{&#34;r&#34;:0.25262922048568726,&#34;g&#34;:0.25262922048568726,&#34;b&#34;:0.25262922048568726,&#34;a&#34;:0.34999999403953552},&#34;position&#34;:0.089225620031356812},{&#34;color&#34;:{&#34;r&#34;:1.0,&#34;g&#34;:1.0,&#34;b&#34;:1.0,&#34;a&#34;:0.50},&#34;position&#34;:0.16744795441627502},{&#34;color&#34;:{&#34;r&#34;:1.0,&#34;g&#34;:1.0,&#34;b&#34;:1.0,&#34;a&#34;:0.50},&#34;position&#34;:0.29941025376319885},{&#34;color&#34;:{&#34;r&#34;:0.25098040699958801,&#34;g&#34;:0.25098040699958801,&#34;b&#34;:0.25098040699958801,&#34;a&#34;:0.34999999403953552},&#34;position&#34;:0.52108556032180786},{&#34;color&#34;:{&#34;r&#34;:0.97664386034011841,&#34;g&#34;:0.97664386034011841,&#34;b&#34;:0.97664386034011841,&#34;a&#34;:1.0},&#34;position&#34;:0.57661086320877075},{&#34;color&#34;:{&#34;r&#34;:1.0,&#34;g&#34;:1.0,&#34;b&#34;:1.0,&#34;a&#34;:0.50},&#34;position&#34;:0.79807692766189575},{&#34;color&#34;:{&#34;r&#34;:0.97647058963775635,&#34;g&#34;:0.97647058963775635,&#34;b&#34;:0.97647058963775635,&#34;a&#34;:0.50},&#34;position&#34;:0.90846514701843262}],&#34;transform&#34;:{&#34;m00&#34;:51.714611053466797,&#34;m01&#34;:-9.7697811126708984,&#34;m02&#34;:55.255878448486328,&#34;m10&#34;:11.187819480895996,&#34;m11&#34;:45.156322479248047,&#34;m12&#34;:-4.0657854080200195},&#34;opacity&#34;:0.50,&#34;blendMode&#34;:&#34;NORMAL&#34;,&#34;visible&#34;:true}" mask="url(#path-1-inside-1_68_692)"/>
</g>
<g clip-path="url(#clip1_68_692)">
<path d="M81.0469 29.8384H67.0469" stroke="white" stroke-width="2" stroke-linecap="round" stroke-linejoin="round"/>
<path d="M73.0469 35.8384L67.0469 29.8384" stroke="white" stroke-width="2" stroke-linecap="round" stroke-linejoin="round"/>
<path d="M73.0469 23.8384L67.0469 29.8384" stroke="white" stroke-width="2" stroke-linecap="round" stroke-linejoin="round"/>
</g>
<foreignObject x="52.9532" y="-19.3542" width="123.915" height="172.299"><div xmlns="http://www.w3.org/1999/xhtml" style="backdrop-filter:blur(12.1px);clip-path:url(#bgblur_2_68_692_clip_path);height:100%;width:100%"></div></foreignObject><g filter="url(#filter1_dddd_68_692)" data-figma-bg-blur-radius="24.1926">
<mask id="path-6-inside-2_68_692" fill="white">
<path d="M114.376 4.83838C112.656 4.83838 111.335 6.34416 111.335 8.06396C111.335 12.8214 110.109 17.173 108.081 20.5209C105.7 24.4502 102.95 28.6032 102.95 33.1975V41.6593C102.95 48.7853 108.727 54.562 115.853 54.562H142.372C145.22 54.562 147.802 52.6672 149.687 50.5329C151.394 48.6002 152.676 46.4004 152.676 43.8218V17.7411C152.676 10.6151 146.899 4.83838 139.773 4.83838H114.376Z"/>
</mask>
<path d="M114.376 4.83838C112.656 4.83838 111.335 6.34416 111.335 8.06396C111.335 12.8214 110.109 17.173 108.081 20.5209C105.7 24.4502 102.95 28.6032 102.95 33.1975V41.6593C102.95 48.7853 108.727 54.562 115.853 54.562H142.372C145.22 54.562 147.802 52.6672 149.687 50.5329C151.394 48.6002 152.676 46.4004 152.676 43.8218V17.7411C152.676 10.6151 146.899 4.83838 139.773 4.83838H114.376Z" fill="white" fill-opacity="0.1"/>
<g clip-path="url(#paint1_angular_68_692_clip_path)" data-figma-skip-parse="true" mask="url(#path-6-inside-2_68_692)"><g transform="matrix(-0.0258573 0.00559391 0.00488489 0.0225782 126.446 24.1063)"><foreignObject x="-1611.68" y="-1611.68" width="3223.37" height="3223.37"><div xmlns="http://www.w3.org/1999/xhtml" style="background:conic-gradient(from 90deg,rgba(108, 108, 108, 0.5) 0deg,rgba(64, 64, 64, 0.5) 10.5206deg,rgba(64, 64, 64, 0.35) 32.1212deg,rgba(255, 255, 255, 0.5) 60.2813deg,rgba(255, 255, 255, 0.5) 107.788deg,rgba(64, 64, 64, 0.35) 187.591deg,rgba(249, 249, 249, 1) 207.58deg,rgba(255, 255, 255, 0.5) 287.308deg,rgba(249, 249, 249, 0.5) 327.047deg,rgba(108, 108, 108, 0.5) 360deg);height:100%;width:100%;opacity:0.5"></div></foreignObject></g></g><path d="M111.335 8.06396H112.948V8.06397L111.335 8.06396ZM149.687 50.5329L148.478 49.4652L149.687 50.5329ZM111.335 8.06396L112.948 8.06397C112.948 13.089 111.655 17.7346 109.46 21.3567L108.081 20.5209L106.701 19.6851C108.564 16.6115 109.722 12.5539 109.722 8.06396L111.335 8.06396ZM102.95 33.1975H104.563V41.6593H102.95H101.337V33.1975H102.95ZM115.853 54.562V52.9492H142.372V54.562V56.1749H115.853V54.562ZM152.676 43.8218H151.063V17.7411H152.676H154.289V43.8218H152.676ZM139.773 4.83838V6.45122H114.376V4.83838V3.22554H139.773V4.83838ZM152.676 17.7411H151.063C151.063 11.5059 146.008 6.45122 139.773 6.45122V4.83838V3.22554C147.79 3.22554 154.289 9.72437 154.289 17.7411H152.676ZM142.372 54.562V52.9492C144.52 52.9492 146.696 51.4832 148.478 49.4652L149.687 50.5329L150.896 51.6005C148.908 53.8513 145.92 56.1749 142.372 56.1749V54.562ZM102.95 41.6593H104.563C104.563 47.8945 109.618 52.9492 115.853 52.9492V54.562V56.1749C107.836 56.1749 101.337 49.676 101.337 41.6593H102.95ZM108.081 20.5209L109.46 21.3567C108.243 23.366 107.022 25.2896 106.083 27.2937C105.154 29.2793 104.563 31.2237 104.563 33.1975H102.95H101.337C101.337 30.5771 102.122 28.1478 103.162 25.9259C104.194 23.7226 105.538 21.6051 106.701 19.6851L108.081 20.5209ZM149.687 50.5329L148.478 49.4652C150.069 47.6642 151.063 45.8336 151.063 43.8218H152.676H154.289C154.289 46.9671 152.719 49.5362 150.896 51.6005L149.687 50.5329ZM111.335 8.06396H109.722C109.722 5.57939 111.644 3.22554 114.376 3.22554V4.83838V6.45122C113.668 6.45122 112.948 7.10894 112.948 8.06396H111.335Z" data-figma-gradient-fill="{&#34;type&#34;:&#34;GRADIENT_ANGULAR&#34;,&#34;stops&#34;:[{&#34;color&#34;:{&#34;r&#34;:0.25098040699958801,&#34;g&#34;:0.25098040699958801,&#34;b&#34;:0.25098040699958801,&#34;a&#34;:0.50},&#34;position&#34;:0.029223963618278503},{&#34;color&#34;:{&#34;r&#34;:0.25262922048568726,&#34;g&#34;:0.25262922048568726,&#34;b&#34;:0.25262922048568726,&#34;a&#34;:0.34999999403953552},&#34;position&#34;:0.089225620031356812},{&#34;color&#34;:{&#34;r&#34;:1.0,&#34;g&#34;:1.0,&#34;b&#34;:1.0,&#34;a&#34;:0.50},&#34;position&#34;:0.16744795441627502},{&#34;color&#34;:{&#34;r&#34;:1.0,&#34;g&#34;:1.0,&#34;b&#34;:1.0,&#34;a&#34;:0.50},&#34;position&#34;:0.29941025376319885},{&#34;color&#34;:{&#34;r&#34;:0.25098040699958801,&#34;g&#34;:0.25098040699958801,&#34;b&#34;:0.25098040699958801,&#34;a&#34;:0.34999999403953552},&#34;position&#34;:0.52108556032180786},{&#34;color&#34;:{&#34;r&#34;:0.97664386034011841,&#34;g&#34;:0.97664386034011841,&#34;b&#34;:0.97664386034011841,&#34;a&#34;:1.0},&#34;position&#34;:0.57661086320877075},{&#34;color&#34;:{&#34;r&#34;:1.0,&#34;g&#34;:1.0,&#34;b&#34;:1.0,&#34;a&#34;:0.50},&#34;position&#34;:0.79807692766189575},{&#34;color&#34;:{&#34;r&#34;:0.97647058963775635,&#34;g&#34;:0.97647058963775635,&#34;b&#34;:0.97647058963775635,&#34;a&#34;:0.50},&#34;position&#34;:0.90846514701843262}],&#34;stopsVar&#34;:[{&#34;color&#34;:{&#34;r&#34;:0.25098040699958801,&#34;g&#34;:0.25098040699958801,&#34;b&#34;:0.25098040699958801,&#34;a&#34;:0.50},&#34;position&#34;:0.029223963618278503},{&#34;color&#34;:{&#34;r&#34;:0.25262922048568726,&#34;g&#34;:0.25262922048568726,&#34;b&#34;:0.25262922048568726,&#34;a&#34;:0.34999999403953552},&#34;position&#34;:0.089225620031356812},{&#34;color&#34;:{&#34;r&#34;:1.0,&#34;g&#34;:1.0,&#34;b&#34;:1.0,&#34;a&#34;:0.50},&#34;position&#34;:0.16744795441627502},{&#34;color&#34;:{&#34;r&#34;:1.0,&#34;g&#34;:1.0,&#34;b&#34;:1.0,&#34;a&#34;:0.50},&#34;position&#34;:0.29941025376319885},{&#34;color&#34;:{&#34;r&#34;:0.25098040699958801,&#34;g&#34;:0.25098040699958801,&#34;b&#34;:0.25098040699958801,&#34;a&#34;:0.34999999403953552},&#34;position&#34;:0.52108556032180786},{&#34;color&#34;:{&#34;r&#34;:0.97664386034011841,&#34;g&#34;:0.97664386034011841,&#34;b&#34;:0.97664386034011841,&#34;a&#34;:1.0},&#34;position&#34;:0.57661086320877075},{&#34;color&#34;:{&#34;r&#34;:1.0,&#34;g&#34;:1.0,&#34;b&#34;:1.0,&#34;a&#34;:0.50},&#34;position&#34;:0.79807692766189575},{&#34;color&#34;:{&#34;r&#34;:0.97647058963775635,&#34;g&#34;:0.97647058963775635,&#34;b&#34;:0.97647058963775635,&#34;a&#34;:0.50},&#34;position&#34;:0.90846514701843262}],&#34;transform&#34;:{&#34;m00&#34;:-51.714611053466797,&#34;m01&#34;:9.7697811126708984,&#34;m02&#34;:147.41795349121094,&#34;m10&#34;:11.187819480895996,&#34;m11&#34;:45.156322479248047,&#34;m12&#34;:-4.0657854080200195},&#34;opacity&#34;:0.50,&#34;blendMode&#34;:&#34;NORMAL&#34;,&#34;visible&#34;:true}" mask="url(#path-6-inside-2_68_692)"/>
</g>
<g clip-path="url(#clip3_68_692)">
<path d="M121.627 29.8384H135.627" stroke="white" stroke-width="2" stroke-linecap="round" stroke-linejoin="round"/>
<path d="M129.627 35.8384L135.627 29.8384" stroke="white" stroke-width="2" stroke-linecap="round" stroke-linejoin="round"/>
<path d="M129.627 23.8384L135.627 29.8384" stroke="white" stroke-width="2" stroke-linecap="round" stroke-linejoin="round"/>
</g>
<defs>
<filter id="filter0_dddd_68_692" x="5.91278e-05" y="-19.3542" width="123.917" height="172.299" filterUnits="userSpaceOnUse" color-interpolation-filters="sRGB">
<feFlood flood-opacity="0" result="BackgroundImageFix"/>
<feColorMatrix in="SourceAlpha" type="matrix" values="0 0 0 0 0 0 0 0 0 0 0 0 0 0 0 0 0 0 127 0" result="hardAlpha"/>
<feOffset dx="-1.61284" dy="4.83851"/>
<feGaussianBlur stdDeviation="4.83851"/>
<feColorMatrix type="matrix" values="0 0 0 0 0 0 0 0 0 0 0 0 0 0 0 0 0 0 0.08 0"/>
<feBlend mode="normal" in2="BackgroundImageFix" result="effect1_dropShadow_68_692"/>
<feColorMatrix in="SourceAlpha" type="matrix" values="0 0 0 0 0 0 0 0 0 0 0 0 0 0 0 0 0 0 127 0" result="hardAlpha"/>
<feOffset dx="-4.83851" dy="17.7412"/>
<feGaussianBlur stdDeviation="8.87061"/>
<feColorMatrix type="matrix" values="0 0 0 0 0 0 0 0 0 0 0 0 0 0 0 0 0 0 0.07 0"/>
<feBlend mode="normal" in2="effect1_dropShadow_68_692" result="effect2_dropShadow_68_692"/>
<feColorMatrix in="SourceAlpha" type="matrix" values="0 0 0 0 0 0 0 0 0 0 0 0 0 0 0 0 0 0 127 0" result="hardAlpha"/>
<feOffset dx="-11.2899" dy="38.7081"/>
<feGaussianBlur stdDeviation="12.0963"/>
<feColorMatrix type="matrix" values="0 0 0 0 0 0 0 0 0 0 0 0 0 0 0 0 0 0 0.04 0"/>
<feBlend mode="normal" in2="effect2_dropShadow_68_692" result="effect3_dropShadow_68_692"/>
<feColorMatrix in="SourceAlpha" type="matrix" values="0 0 0 0 0 0 0 0 0 0 0 0 0 0 0 0 0 0 127 0" result="hardAlpha"/>
<feOffset dx="-20.9669" dy="69.3521"/>
<feGaussianBlur stdDeviation="14.5155"/>
<feColorMatrix type="matrix" values="0 0 0 0 0 0 0 0 0 0 0 0 0 0 0 0 0 0 0.01 0"/>
<feBlend mode="normal" in2="effect3_dropShadow_68_692" result="effect4_dropShadow_68_692"/>
<feBlend mode="normal" in="SourceGraphic" in2="effect4_dropShadow_68_692" result="shape"/>
</filter>
<clipPath id="bgblur_0_68_692_clip_path" transform="translate(-5.91278e-05 19.3542)"><path d="M88.298 4.83838C90.0178 4.83838 91.3389 6.34416 91.3389 8.06396C91.3389 12.8214 92.5647 17.173 94.5932 20.5209C96.974 24.4502 99.7236 28.6032 99.7236 33.1975V41.6593C99.7236 48.7853 93.9469 54.562 86.8209 54.562H60.3016C57.4541 54.562 54.8716 52.6672 52.9866 50.5329C51.2797 48.6002 49.998 46.4004 49.998 43.8218V17.7411C49.998 10.6151 55.7748 4.83838 62.9008 4.83838H88.298Z"/>
</clipPath><clipPath id="paint0_angular_68_692_clip_path"><path d="M91.3389 8.06396H89.726V8.06397L91.3389 8.06396ZM52.9866 50.5329L54.1955 49.4652L52.9866 50.5329ZM91.3389 8.06396L89.726 8.06397C89.7261 13.089 91.0191 17.7346 93.2138 21.3567L94.5932 20.5209L95.9726 19.6851C94.1102 16.6115 92.9517 12.5539 92.9517 8.06396L91.3389 8.06396ZM99.7236 33.1975H98.1108V41.6593H99.7236H101.336V33.1975H99.7236ZM86.8209 54.562V52.9492H60.3016V54.562V56.1749H86.8209V54.562ZM49.998 43.8218H51.6109V17.7411H49.998H48.3852V43.8218H49.998ZM62.9008 4.83838V6.45122H88.298V4.83838V3.22554H62.9008V4.83838ZM49.998 17.7411H51.6109C51.6109 11.5059 56.6655 6.45122 62.9008 6.45122V4.83838V3.22554C54.884 3.22554 48.3852 9.72437 48.3852 17.7411H49.998ZM60.3016 54.562V52.9492C58.1539 52.9492 55.9777 51.4832 54.1955 49.4652L52.9866 50.5329L51.7778 51.6005C53.7655 53.8513 56.7543 56.1749 60.3016 56.1749V54.562ZM99.7236 41.6593H98.1108C98.1108 47.8945 93.0561 52.9492 86.8209 52.9492V54.562V56.1749C94.8376 56.1749 101.336 49.676 101.336 41.6593H99.7236ZM94.5932 20.5209L93.2138 21.3567C94.4313 23.366 95.6522 25.2896 96.5906 27.2937C97.5202 29.2793 98.1108 31.2237 98.1108 33.1975H99.7236H101.336C101.336 30.5771 100.552 28.1478 99.5119 25.9259C98.4802 23.7226 97.1359 21.6051 95.9726 19.6851L94.5932 20.5209ZM52.9866 50.5329L54.1955 49.4652C52.6049 47.6642 51.6109 45.8336 51.6109 43.8218H49.998H48.3852C48.3852 46.9671 49.9546 49.5362 51.7778 51.6005L52.9866 50.5329ZM91.3389 8.06396H92.9517C92.9517 5.57939 91.0295 3.22554 88.298 3.22554V4.83838V6.45122C89.0061 6.45122 89.726 7.10894 89.726 8.06396H91.3389Z" mask="url(#path-1-inside-1_68_692)"/></clipPath><filter id="filter1_dddd_68_692" x="52.9532" y="-19.3542" width="123.915" height="172.299" filterUnits="userSpaceOnUse" color-interpolation-filters="sRGB">
<feFlood flood-opacity="0" result="BackgroundImageFix"/>
<feColorMatrix in="SourceAlpha" type="matrix" values="0 0 0 0 0 0 0 0 0 0 0 0 0 0 0 0 0 0 127 0" result="hardAlpha"/>
<feOffset dx="-1.61284" dy="4.83851"/>
<feGaussianBlur stdDeviation="4.83851"/>
<feColorMatrix type="matrix" values="0 0 0 0 0 0 0 0 0 0 0 0 0 0 0 0 0 0 0.08 0"/>
<feBlend mode="normal" in2="BackgroundImageFix" result="effect1_dropShadow_68_692"/>
<feColorMatrix in="SourceAlpha" type="matrix" values="0 0 0 0 0 0 0 0 0 0 0 0 0 0 0 0 0 0 127 0" result="hardAlpha"/>
<feOffset dx="-4.83851" dy="17.7412"/>
<feGaussianBlur stdDeviation="8.87061"/>
<feColorMatrix type="matrix" values="0 0 0 0 0 0 0 0 0 0 0 0 0 0 0 0 0 0 0.07 0"/>
<feBlend mode="normal" in2="effect1_dropShadow_68_692" result="effect2_dropShadow_68_692"/>
<feColorMatrix in="SourceAlpha" type="matrix" values="0 0 0 0 0 0 0 0 0 0 0 0 0 0 0 0 0 0 127 0" result="hardAlpha"/>
<feOffset dx="-11.2899" dy="38.7081"/>
<feGaussianBlur stdDeviation="12.0963"/>
<feColorMatrix type="matrix" values="0 0 0 0 0 0 0 0 0 0 0 0 0 0 0 0 0 0 0.04 0"/>
<feBlend mode="normal" in2="effect2_dropShadow_68_692" result="effect3_dropShadow_68_692"/>
<feColorMatrix in="SourceAlpha" type="matrix" values="0 0 0 0 0 0 0 0 0 0 0 0 0 0 0 0 0 0 127 0" result="hardAlpha"/>
<feOffset dx="-20.9669" dy="69.3521"/>
<feGaussianBlur stdDeviation="14.5155"/>
<feColorMatrix type="matrix" values="0 0 0 0 0 0 0 0 0 0 0 0 0 0 0 0 0 0 0.01 0"/>
<feBlend mode="normal" in2="effect3_dropShadow_68_692" result="effect4_dropShadow_68_692"/>
<feBlend mode="normal" in="SourceGraphic" in2="effect4_dropShadow_68_692" result="shape"/>
</filter>
<clipPath id="bgblur_2_68_692_clip_path" transform="translate(-52.9532 19.3542)"><path d="M114.376 4.83838C112.656 4.83838 111.335 6.34416 111.335 8.06396C111.335 12.8214 110.109 17.173 108.081 20.5209C105.7 24.4502 102.95 28.6032 102.95 33.1975V41.6593C102.95 48.7853 108.727 54.562 115.853 54.562H142.372C145.22 54.562 147.802 52.6672 149.687 50.5329C151.394 48.6002 152.676 46.4004 152.676 43.8218V17.7411C152.676 10.6151 146.899 4.83838 139.773 4.83838H114.376Z"/>
</clipPath><clipPath id="paint1_angular_68_692_clip_path"><path d="M111.335 8.06396H112.948V8.06397L111.335 8.06396ZM149.687 50.5329L148.478 49.4652L149.687 50.5329ZM111.335 8.06396L112.948 8.06397C112.948 13.089 111.655 17.7346 109.46 21.3567L108.081 20.5209L106.701 19.6851C108.564 16.6115 109.722 12.5539 109.722 8.06396L111.335 8.06396ZM102.95 33.1975H104.563V41.6593H102.95H101.337V33.1975H102.95ZM115.853 54.562V52.9492H142.372V54.562V56.1749H115.853V54.562ZM152.676 43.8218H151.063V17.7411H152.676H154.289V43.8218H152.676ZM139.773 4.83838V6.45122H114.376V4.83838V3.22554H139.773V4.83838ZM152.676 17.7411H151.063C151.063 11.5059 146.008 6.45122 139.773 6.45122V4.83838V3.22554C147.79 3.22554 154.289 9.72437 154.289 17.7411H152.676ZM142.372 54.562V52.9492C144.52 52.9492 146.696 51.4832 148.478 49.4652L149.687 50.5329L150.896 51.6005C148.908 53.8513 145.92 56.1749 142.372 56.1749V54.562ZM102.95 41.6593H104.563C104.563 47.8945 109.618 52.9492 115.853 52.9492V54.562V56.1749C107.836 56.1749 101.337 49.676 101.337 41.6593H102.95ZM108.081 20.5209L109.46 21.3567C108.243 23.366 107.022 25.2896 106.083 27.2937C105.154 29.2793 104.563 31.2237 104.563 33.1975H102.95H101.337C101.337 30.5771 102.122 28.1478 103.162 25.9259C104.194 23.7226 105.538 21.6051 106.701 19.6851L108.081 20.5209ZM149.687 50.5329L148.478 49.4652C150.069 47.6642 151.063 45.8336 151.063 43.8218H152.676H154.289C154.289 46.9671 152.719 49.5362 150.896 51.6005L149.687 50.5329ZM111.335 8.06396H109.722C109.722 5.57939 111.644 3.22554 114.376 3.22554V4.83838V6.45122C113.668 6.45122 112.948 7.10894 112.948 8.06396H111.335Z" mask="url(#path-6-inside-2_68_692)"/></clipPath><clipPath id="clip1_68_692">
<rect width="24" height="24" fill="white" transform="matrix(-1 0 0 1 86.0469 17.8384)"/>
</clipPath>
<clipPath id="clip3_68_692">
<rect width="24" height="24" fill="white" transform="translate(116.627 17.8384)"/>
</clipPath>
</defs>
</svg>
